<mxfile host="app.diagrams.net" agent="Mozilla/5.0 (Windows NT 10.0; Win64; x64) AppleWebKit/537.36 (KHTML, like Gecko) Chrome/134.0.0.0 Safari/537.36" version="26.1.3">
  <diagram name="Página-1" id="cEVYimw7IHWevesovNho">
    <mxGraphModel grid="1" page="1" gridSize="10" guides="1" tooltips="1" connect="1" arrows="1" fold="1" pageScale="1" pageWidth="827" pageHeight="1169" math="0" shadow="0">
      <root>
        <mxCell id="0" />
        <mxCell id="1" parent="0" />
        <mxCell id="g3hCCptNkLS0zQrufuyF-1" value="Usuário&lt;div&gt;&lt;br&gt;&lt;/div&gt;" style="shape=umlActor;verticalLabelPosition=bottom;verticalAlign=top;html=1;outlineConnect=0;" vertex="1" parent="1">
          <mxGeometry x="100" y="230" width="30" height="60" as="geometry" />
        </mxCell>
        <mxCell id="g3hCCptNkLS0zQrufuyF-7" value="" style="edgeStyle=orthogonalEdgeStyle;rounded=0;orthogonalLoop=1;jettySize=auto;html=1;" edge="1" parent="1" source="g3hCCptNkLS0zQrufuyF-5" target="g3hCCptNkLS0zQrufuyF-6">
          <mxGeometry relative="1" as="geometry" />
        </mxCell>
        <mxCell id="g3hCCptNkLS0zQrufuyF-9" style="edgeStyle=orthogonalEdgeStyle;rounded=0;orthogonalLoop=1;jettySize=auto;html=1;" edge="1" parent="1" source="g3hCCptNkLS0zQrufuyF-5" target="g3hCCptNkLS0zQrufuyF-10">
          <mxGeometry relative="1" as="geometry">
            <mxPoint x="340" y="440" as="targetPoint" />
            <Array as="points">
              <mxPoint x="320" y="410" />
              <mxPoint x="320" y="410" />
            </Array>
          </mxGeometry>
        </mxCell>
        <mxCell id="g3hCCptNkLS0zQrufuyF-5" value="Fazer login" style="ellipse;whiteSpace=wrap;html=1;" vertex="1" parent="1">
          <mxGeometry x="270" y="230" width="100" height="70" as="geometry" />
        </mxCell>
        <mxCell id="g3hCCptNkLS0zQrufuyF-6" value="Cadastrar" style="ellipse;whiteSpace=wrap;html=1;" vertex="1" parent="1">
          <mxGeometry x="265" y="60" width="110" height="70" as="geometry" />
        </mxCell>
        <mxCell id="g3hCCptNkLS0zQrufuyF-8" style="edgeStyle=orthogonalEdgeStyle;rounded=0;orthogonalLoop=1;jettySize=auto;html=1;entryX=0.01;entryY=0.414;entryDx=0;entryDy=0;entryPerimeter=0;" edge="1" parent="1" source="g3hCCptNkLS0zQrufuyF-1" target="g3hCCptNkLS0zQrufuyF-5">
          <mxGeometry relative="1" as="geometry" />
        </mxCell>
        <mxCell id="g3hCCptNkLS0zQrufuyF-14" style="edgeStyle=orthogonalEdgeStyle;rounded=0;orthogonalLoop=1;jettySize=auto;html=1;exitX=0;exitY=1;exitDx=0;exitDy=0;" edge="1" parent="1" source="g3hCCptNkLS0zQrufuyF-10" target="g3hCCptNkLS0zQrufuyF-11">
          <mxGeometry relative="1" as="geometry" />
        </mxCell>
        <mxCell id="g3hCCptNkLS0zQrufuyF-15" style="edgeStyle=orthogonalEdgeStyle;rounded=0;orthogonalLoop=1;jettySize=auto;html=1;entryX=0.5;entryY=0;entryDx=0;entryDy=0;" edge="1" parent="1" source="g3hCCptNkLS0zQrufuyF-10" target="g3hCCptNkLS0zQrufuyF-12">
          <mxGeometry relative="1" as="geometry" />
        </mxCell>
        <mxCell id="g3hCCptNkLS0zQrufuyF-16" style="edgeStyle=orthogonalEdgeStyle;rounded=0;orthogonalLoop=1;jettySize=auto;html=1;exitX=1;exitY=1;exitDx=0;exitDy=0;" edge="1" parent="1" source="g3hCCptNkLS0zQrufuyF-10" target="g3hCCptNkLS0zQrufuyF-13">
          <mxGeometry relative="1" as="geometry" />
        </mxCell>
        <mxCell id="g3hCCptNkLS0zQrufuyF-10" value="Menu de opções" style="ellipse;whiteSpace=wrap;html=1;" vertex="1" parent="1">
          <mxGeometry x="260" y="420" width="110" height="90" as="geometry" />
        </mxCell>
        <mxCell id="g3hCCptNkLS0zQrufuyF-17" style="edgeStyle=orthogonalEdgeStyle;rounded=0;orthogonalLoop=1;jettySize=auto;html=1;" edge="1" parent="1" source="g3hCCptNkLS0zQrufuyF-11" target="g3hCCptNkLS0zQrufuyF-18">
          <mxGeometry relative="1" as="geometry">
            <mxPoint x="130" y="760" as="targetPoint" />
          </mxGeometry>
        </mxCell>
        <mxCell id="g3hCCptNkLS0zQrufuyF-11" value="Colaboradores" style="ellipse;whiteSpace=wrap;html=1;" vertex="1" parent="1">
          <mxGeometry x="70" y="570" width="120" height="80" as="geometry" />
        </mxCell>
        <mxCell id="g3hCCptNkLS0zQrufuyF-22" value="" style="edgeStyle=orthogonalEdgeStyle;rounded=0;orthogonalLoop=1;jettySize=auto;html=1;" edge="1" parent="1" source="g3hCCptNkLS0zQrufuyF-12" target="g3hCCptNkLS0zQrufuyF-21">
          <mxGeometry relative="1" as="geometry" />
        </mxCell>
        <mxCell id="g3hCCptNkLS0zQrufuyF-12" value="Equipamentos" style="ellipse;whiteSpace=wrap;html=1;" vertex="1" parent="1">
          <mxGeometry x="255" y="580" width="120" height="80" as="geometry" />
        </mxCell>
        <mxCell id="g3hCCptNkLS0zQrufuyF-23" value="" style="edgeStyle=orthogonalEdgeStyle;rounded=0;orthogonalLoop=1;jettySize=auto;html=1;" edge="1" parent="1" source="g3hCCptNkLS0zQrufuyF-13" target="g3hCCptNkLS0zQrufuyF-20">
          <mxGeometry relative="1" as="geometry" />
        </mxCell>
        <mxCell id="g3hCCptNkLS0zQrufuyF-13" value="Empréstimos" style="ellipse;whiteSpace=wrap;html=1;" vertex="1" parent="1">
          <mxGeometry x="450" y="570" width="120" height="80" as="geometry" />
        </mxCell>
        <mxCell id="g3hCCptNkLS0zQrufuyF-18" value="Listar&amp;nbsp;&lt;div&gt;Adicionar&lt;/div&gt;&lt;div&gt;Alterar&lt;/div&gt;&lt;div&gt;ver detalhes&amp;nbsp;&lt;/div&gt;" style="ellipse;whiteSpace=wrap;html=1;" vertex="1" parent="1">
          <mxGeometry x="60" y="720" width="140" height="90" as="geometry" />
        </mxCell>
        <mxCell id="g3hCCptNkLS0zQrufuyF-20" value="Listar&amp;nbsp;&lt;div&gt;Adicionar&lt;/div&gt;&lt;div&gt;Alterar&lt;/div&gt;&lt;div&gt;ver detalhes&amp;nbsp;&lt;/div&gt;" style="ellipse;whiteSpace=wrap;html=1;" vertex="1" parent="1">
          <mxGeometry x="440" y="720" width="140" height="90" as="geometry" />
        </mxCell>
        <mxCell id="g3hCCptNkLS0zQrufuyF-21" value="Listar&amp;nbsp;&lt;div&gt;Adicionar&lt;/div&gt;&lt;div&gt;Alterar&lt;/div&gt;&lt;div&gt;ver detalhes&amp;nbsp;&lt;/div&gt;" style="ellipse;whiteSpace=wrap;html=1;" vertex="1" parent="1">
          <mxGeometry x="245" y="720" width="140" height="90" as="geometry" />
        </mxCell>
        <mxCell id="g3hCCptNkLS0zQrufuyF-24" style="edgeStyle=orthogonalEdgeStyle;rounded=0;orthogonalLoop=1;jettySize=auto;html=1;entryX=0.5;entryY=0;entryDx=0;entryDy=0;entryPerimeter=0;" edge="1" parent="1" source="g3hCCptNkLS0zQrufuyF-6" target="g3hCCptNkLS0zQrufuyF-1">
          <mxGeometry relative="1" as="geometry" />
        </mxCell>
      </root>
    </mxGraphModel>
  </diagram>
</mxfile>
